<svg width="169" height="85" viewBox="0 0 169 85" fill="none" xmlns="http://www.w3.org/2000/svg">
<path d="M15.12 40.36C13.2 40.36 11.412 40.048 9.756 39.424C8.124 38.776 6.696 37.876 5.472 36.724C4.272 35.548 3.336 34.168 2.664 32.584C1.992 31 1.656 29.272 1.656 27.4C1.656 25.528 1.992 23.8 2.664 22.216C3.336 20.632 4.284 19.264 5.508 18.112C6.732 16.936 8.16 16.036 9.792 15.412C11.424 14.764 13.212 14.44 15.156 14.44C17.22 14.44 19.104 14.8 20.808 15.52C22.512 16.216 23.952 17.26 25.128 18.652L22.104 21.496C21.192 20.512 20.172 19.78 19.044 19.3C17.916 18.796 16.692 18.544 15.372 18.544C14.052 18.544 12.84 18.76 11.736 19.192C10.656 19.624 9.708 20.236 8.892 21.028C8.1 21.82 7.476 22.756 7.02 23.836C6.588 24.916 6.372 26.104 6.372 27.4C6.372 28.696 6.588 29.884 7.02 30.964C7.476 32.044 8.1 32.98 8.892 33.772C9.708 34.564 10.656 35.176 11.736 35.608C12.84 36.04 14.052 36.256 15.372 36.256C16.692 36.256 17.916 36.016 19.044 35.536C20.172 35.032 21.192 34.276 22.104 33.268L25.128 36.148C23.952 37.516 22.512 38.56 20.808 39.28C19.104 40 17.208 40.36 15.12 40.36ZM28.9693 40V20.776H47.4013V40H42.9373V23.548L43.9813 24.592H32.4253L33.4693 23.548V40H28.9693ZM64.1292 40.252C62.5692 40.252 61.1412 39.892 59.8452 39.172C58.5732 38.452 57.5532 37.372 56.7852 35.932C56.0412 34.468 55.6692 32.62 55.6692 30.388C55.6692 28.132 56.0292 26.284 56.7492 24.844C57.4932 23.404 58.5012 22.336 59.7732 21.64C61.0452 20.92 62.4972 20.56 64.1292 20.56C66.0252 20.56 67.6932 20.968 69.1332 21.784C70.5972 22.6 71.7492 23.74 72.5892 25.204C73.4532 26.668 73.8852 28.396 73.8852 30.388C73.8852 32.38 73.4532 34.12 72.5892 35.608C71.7492 37.072 70.5972 38.212 69.1332 39.028C67.6932 39.844 66.0252 40.252 64.1292 40.252ZM53.4732 46.984V20.776H57.7572V25.312L57.6132 30.424L57.9732 35.536V46.984H53.4732ZM63.6252 36.4C64.7052 36.4 65.6652 36.16 66.5052 35.68C67.3692 35.2 68.0532 34.504 68.5572 33.592C69.0612 32.68 69.3132 31.612 69.3132 30.388C69.3132 29.14 69.0612 28.072 68.5572 27.184C68.0532 26.272 67.3692 25.576 66.5052 25.096C65.6652 24.616 64.7052 24.376 63.6252 24.376C62.5452 24.376 61.5732 24.616 60.7092 25.096C59.8452 25.576 59.1612 26.272 58.6572 27.184C58.1532 28.072 57.9012 29.14 57.9012 30.388C57.9012 31.612 58.1532 32.68 58.6572 33.592C59.1612 34.504 59.8452 35.2 60.7092 35.68C61.5732 36.16 62.5452 36.4 63.6252 36.4Z" fill="#52ADCA"/>
<path d="M127.772 40.252C125.756 40.252 123.956 39.832 122.372 38.992C120.812 38.128 119.588 36.952 118.7 35.464C117.812 33.976 117.368 32.284 117.368 30.388C117.368 28.468 117.812 26.776 118.7 25.312C119.588 23.824 120.812 22.66 122.372 21.82C123.956 20.98 125.756 20.56 127.772 20.56C129.644 20.56 131.288 20.944 132.704 21.712C134.144 22.456 135.236 23.56 135.98 25.024L132.524 27.04C131.948 26.128 131.24 25.456 130.4 25.024C129.584 24.592 128.696 24.376 127.736 24.376C126.632 24.376 125.636 24.616 124.748 25.096C123.86 25.576 123.164 26.272 122.66 27.184C122.156 28.072 121.904 29.14 121.904 30.388C121.904 31.636 122.156 32.716 122.66 33.628C123.164 34.516 123.86 35.2 124.748 35.68C125.636 36.16 126.632 36.4 127.736 36.4C128.696 36.4 129.584 36.184 130.4 35.752C131.24 35.32 131.948 34.648 132.524 33.736L135.98 35.752C135.236 37.192 134.144 38.308 132.704 39.1C131.288 39.868 129.644 40.252 127.772 40.252ZM139.942 40V20.776H144.442V33.448L155.062 20.776H159.166V40H154.666V27.328L144.082 40H139.942Z" fill="#52ADCA"/>
<path d="M0.464 78.896L1.136 77.376C1.616 77.7067 2.13867 77.9627 2.704 78.144C3.28 78.3147 3.85067 78.4053 4.416 78.416C4.98133 78.4267 5.49333 78.3627 5.952 78.224C6.42133 78.0853 6.79467 77.8773 7.072 77.6C7.34933 77.3227 7.488 76.976 7.488 76.56C7.488 76.0587 7.28 75.6853 6.864 75.44C6.45867 75.184 5.904 75.056 5.2 75.056H2.592V73.424H5.04C5.66933 73.424 6.15467 73.296 6.496 73.04C6.848 72.784 7.024 72.4373 7.024 72C7.024 71.6373 6.90667 71.3387 6.672 71.104C6.448 70.8693 6.13867 70.6933 5.744 70.576C5.36 70.4587 4.92267 70.4053 4.432 70.416C3.952 70.416 3.45067 70.4907 2.928 70.64C2.40533 70.7787 1.90933 70.9867 1.44 71.264L0.784 69.584C1.488 69.2107 2.224 68.9493 2.992 68.8C3.77067 68.6507 4.52267 68.608 5.248 68.672C5.97333 68.736 6.624 68.9013 7.2 69.168C7.78667 69.4347 8.256 69.7867 8.608 70.224C8.96 70.6507 9.136 71.1573 9.136 71.744C9.136 72.2773 8.992 72.752 8.704 73.168C8.42667 73.5733 8.04267 73.888 7.552 74.112C7.06133 74.336 6.49067 74.448 5.84 74.448L5.92 73.936C6.656 73.936 7.296 74.064 7.84 74.32C8.39467 74.5653 8.82133 74.9067 9.12 75.344C9.42933 75.7813 9.584 76.288 9.584 76.864C9.584 77.408 9.44533 77.8933 9.168 78.32C8.89067 78.736 8.512 79.088 8.032 79.376C7.552 79.6533 7.00267 79.8613 6.384 80C5.76533 80.128 5.11467 80.176 4.432 80.144C3.74933 80.112 3.06667 79.9947 2.384 79.792C1.712 79.5893 1.072 79.2907 0.464 78.896ZM11.7346 80V71.456H13.7346V74.928H18.0386V71.456H20.0386V80H18.0386V76.624H13.7346V80H11.7346ZM27.903 80V78.272L27.791 77.904V74.88C27.791 74.2933 27.615 73.84 27.263 73.52C26.911 73.1893 26.3777 73.024 25.663 73.024C25.183 73.024 24.7083 73.0987 24.239 73.248C23.7803 73.3973 23.391 73.6053 23.071 73.872L22.287 72.416C22.7457 72.064 23.2897 71.8027 23.919 71.632C24.559 71.4507 25.2203 71.36 25.903 71.36C27.1403 71.36 28.095 71.6587 28.767 72.256C29.4497 72.8427 29.791 73.7547 29.791 74.992V80H27.903ZM25.215 80.112C24.575 80.112 24.015 80.0053 23.535 79.792C23.055 79.568 22.6817 79.264 22.415 78.88C22.159 78.4853 22.031 78.0427 22.031 77.552C22.031 77.072 22.143 76.64 22.367 76.256C22.6017 75.872 22.9803 75.568 23.503 75.344C24.0257 75.12 24.719 75.008 25.583 75.008H28.063V76.336H25.727C25.0443 76.336 24.5857 76.448 24.351 76.672C24.1163 76.8853 23.999 77.152 23.999 77.472C23.999 77.8347 24.143 78.1227 24.431 78.336C24.719 78.5493 25.119 78.656 25.631 78.656C26.1217 78.656 26.559 78.544 26.943 78.32C27.3377 78.096 27.6203 77.7653 27.791 77.328L28.127 78.528C27.935 79.0293 27.5883 79.4187 27.087 79.696C26.5963 79.9733 25.9723 80.112 25.215 80.112ZM36.2499 80.112C35.3005 80.112 34.4685 79.9253 33.7539 79.552C33.0499 79.168 32.5005 78.6453 32.1059 77.984C31.7219 77.3227 31.5299 76.5707 31.5299 75.728C31.5299 74.8747 31.7165 74.1227 32.0899 73.472C32.4739 72.8107 32.9965 72.2933 33.6579 71.92C34.3299 71.5467 35.0925 71.36 35.9459 71.36C36.7779 71.36 37.5192 71.5413 38.1699 71.904C38.8205 72.2667 39.3325 72.7787 39.7059 73.44C40.0792 74.1013 40.2659 74.88 40.2659 75.776C40.2659 75.8613 40.2605 75.9573 40.2499 76.064C40.2499 76.1707 40.2445 76.272 40.2339 76.368H33.1139V75.04H39.1779L38.3939 75.456C38.4045 74.9653 38.3032 74.5333 38.0899 74.16C37.8765 73.7867 37.5832 73.4933 37.2099 73.28C36.8472 73.0667 36.4259 72.96 35.9459 72.96C35.4552 72.96 35.0232 73.0667 34.6499 73.28C34.2872 73.4933 33.9992 73.792 33.7859 74.176C33.5832 74.5493 33.4819 74.992 33.4819 75.504V75.824C33.4819 76.336 33.5992 76.7893 33.8339 77.184C34.0685 77.5787 34.3992 77.8827 34.8259 78.096C35.2525 78.3093 35.7432 78.416 36.2979 78.416C36.7779 78.416 37.2099 78.3413 37.5939 78.192C37.9779 78.0427 38.3192 77.808 38.6179 77.488L39.6899 78.72C39.3059 79.168 38.8205 79.5147 38.2339 79.76C37.6579 79.9947 36.9965 80.112 36.2499 80.112ZM42.4534 80V71.456H44.5494L47.9894 77.52H47.1574L50.7734 71.456H52.6454L52.6614 80H50.8534V73.6L51.1734 73.808L47.9734 79.104H47.1094L43.8934 73.664L44.2774 73.568V80H42.4534ZM54.784 82.416L55.712 78.88L55.984 80.064C55.6107 80.064 55.296 79.952 55.04 79.728C54.7947 79.4933 54.672 79.1787 54.672 78.784C54.672 78.3787 54.7947 78.0587 55.04 77.824C55.296 77.5787 55.6053 77.456 55.968 77.456C56.3413 77.456 56.6507 77.5787 56.896 77.824C57.1413 78.0693 57.264 78.3893 57.264 78.784C57.264 78.8907 57.2533 79.008 57.232 79.136C57.2107 79.2533 57.1733 79.392 57.12 79.552C57.0773 79.712 57.0027 79.9147 56.896 80.16L56.08 82.416H54.784ZM69.8001 80L66.7121 75.904L68.3441 74.896L72.1521 80H69.8001ZM63.6721 80V71.456H65.6721V80H63.6721ZM65.0801 76.576V74.912H67.9761V76.576H65.0801ZM68.5361 75.968L66.6641 75.744L69.8001 71.456H71.9441L68.5361 75.968ZM78.5905 80V78.272L78.4785 77.904V74.88C78.4785 74.2933 78.3025 73.84 77.9505 73.52C77.5985 73.1893 77.0652 73.024 76.3505 73.024C75.8705 73.024 75.3958 73.0987 74.9265 73.248C74.4678 73.3973 74.0785 73.6053 73.7585 73.872L72.9745 72.416C73.4332 72.064 73.9772 71.8027 74.6065 71.632C75.2465 71.4507 75.9078 71.36 76.5905 71.36C77.8278 71.36 78.7825 71.6587 79.4545 72.256C80.1372 72.8427 80.4785 73.7547 80.4785 74.992V80H78.5905ZM75.9025 80.112C75.2625 80.112 74.7025 80.0053 74.2225 79.792C73.7425 79.568 73.3692 79.264 73.1025 78.88C72.8465 78.4853 72.7185 78.0427 72.7185 77.552C72.7185 77.072 72.8305 76.64 73.0545 76.256C73.2892 75.872 73.6678 75.568 74.1905 75.344C74.7132 75.12 75.4065 75.008 76.2705 75.008H78.7505V76.336H76.4145C75.7318 76.336 75.2732 76.448 75.0385 76.672C74.8038 76.8853 74.6865 77.152 74.6865 77.472C74.6865 77.8347 74.8305 78.1227 75.1185 78.336C75.4065 78.5493 75.8065 78.656 76.3185 78.656C76.8092 78.656 77.2465 78.544 77.6305 78.32C78.0252 78.096 78.3078 77.7653 78.4785 77.328L78.8145 78.528C78.6225 79.0293 78.2758 79.4187 77.7745 79.696C77.2838 79.9733 76.6598 80.112 75.9025 80.112ZM89.0814 80L85.9934 75.904L87.6254 74.896L91.4334 80H89.0814ZM82.9534 80V71.456H84.9534V80H82.9534ZM84.3614 76.576V74.912H87.2574V76.576H84.3614ZM87.8174 75.968L85.9454 75.744L89.0814 71.456H91.2254L87.8174 75.968ZM97.2659 80V71.456H105.458V80H103.474V72.688L103.938 73.152H98.8019L99.2659 72.688V80H97.2659ZM111.965 80.112C111.09 80.112 110.311 79.9253 109.629 79.552C108.946 79.168 108.407 78.6453 108.013 77.984C107.618 77.3227 107.421 76.5707 107.421 75.728C107.421 74.8747 107.618 74.1227 108.013 73.472C108.407 72.8107 108.946 72.2933 109.629 71.92C110.311 71.5467 111.09 71.36 111.965 71.36C112.85 71.36 113.634 71.5467 114.317 71.92C115.01 72.2933 115.549 72.8053 115.933 73.456C116.327 74.1067 116.525 74.864 116.525 75.728C116.525 76.5707 116.327 77.3227 115.933 77.984C115.549 78.6453 115.01 79.168 114.317 79.552C113.634 79.9253 112.85 80.112 111.965 80.112ZM111.965 78.4C112.455 78.4 112.893 78.2933 113.277 78.08C113.661 77.8667 113.959 77.5573 114.173 77.152C114.397 76.7467 114.509 76.272 114.509 75.728C114.509 75.1733 114.397 74.6987 114.173 74.304C113.959 73.8987 113.661 73.5893 113.277 73.376C112.893 73.1627 112.461 73.056 111.981 73.056C111.49 73.056 111.053 73.1627 110.669 73.376C110.295 73.5893 109.997 73.8987 109.773 74.304C109.549 74.6987 109.437 75.1733 109.437 75.728C109.437 76.272 109.549 76.7467 109.773 77.152C109.997 77.5573 110.295 77.8667 110.669 78.08C111.053 78.2933 111.485 78.4 111.965 78.4ZM118.5 80V71.456H120.596L124.036 77.52H123.204L126.82 71.456H128.692L128.708 80H126.9V73.6L127.22 73.808L124.02 79.104H123.156L119.94 73.664L120.324 73.568V80H118.5ZM135.199 80.112C134.324 80.112 133.546 79.9253 132.863 79.552C132.18 79.168 131.642 78.6453 131.247 77.984C130.852 77.3227 130.655 76.5707 130.655 75.728C130.655 74.8747 130.852 74.1227 131.247 73.472C131.642 72.8107 132.18 72.2933 132.863 71.92C133.546 71.5467 134.324 71.36 135.199 71.36C136.084 71.36 136.868 71.5467 137.551 71.92C138.244 72.2933 138.783 72.8053 139.167 73.456C139.562 74.1067 139.759 74.864 139.759 75.728C139.759 76.5707 139.562 77.3227 139.167 77.984C138.783 78.6453 138.244 79.168 137.551 79.552C136.868 79.9253 136.084 80.112 135.199 80.112ZM135.199 78.4C135.69 78.4 136.127 78.2933 136.511 78.08C136.895 77.8667 137.194 77.5573 137.407 77.152C137.631 76.7467 137.743 76.272 137.743 75.728C137.743 75.1733 137.631 74.6987 137.407 74.304C137.194 73.8987 136.895 73.5893 136.511 73.376C136.127 73.1627 135.695 73.056 135.215 73.056C134.724 73.056 134.287 73.1627 133.903 73.376C133.53 73.5893 133.231 73.8987 133.007 74.304C132.783 74.6987 132.671 75.1733 132.671 75.728C132.671 76.272 132.783 76.7467 133.007 77.152C133.231 77.5573 133.53 77.8667 133.903 78.08C134.287 78.2933 134.719 78.4 135.199 78.4ZM147.127 76.624C146.721 76.816 146.289 76.976 145.831 77.104C145.383 77.2213 144.908 77.28 144.407 77.28C143.329 77.28 142.492 77.0293 141.895 76.528C141.297 76.0267 140.999 75.248 140.999 74.192V71.456H142.999V74.064C142.999 74.6293 143.159 75.04 143.479 75.296C143.809 75.552 144.263 75.68 144.839 75.68C145.223 75.68 145.607 75.632 145.991 75.536C146.375 75.44 146.753 75.3067 147.127 75.136V76.624ZM146.983 80V71.456H148.983V80H146.983ZM155.96 74.272C157.059 74.272 157.896 74.5173 158.472 75.008C159.048 75.4987 159.336 76.192 159.336 77.088C159.336 78.016 159.016 78.7413 158.376 79.264C157.736 79.776 156.835 80.0267 155.672 80.016L151.672 80V71.456H153.672V74.256L155.96 74.272ZM155.496 78.544C156.083 78.5547 156.531 78.432 156.84 78.176C157.149 77.92 157.304 77.5467 157.304 77.056C157.304 76.5653 157.149 76.2133 156.84 76C156.541 75.776 156.093 75.6587 155.496 75.648L153.672 75.632V78.528L155.496 78.544ZM161.19 76.288L160.806 68.8H163.174L162.774 76.288H161.19ZM161.99 80.112C161.617 80.112 161.307 79.9893 161.062 79.744C160.817 79.4987 160.694 79.2053 160.694 78.864C160.694 78.5227 160.817 78.2347 161.062 78C161.307 77.7547 161.617 77.632 161.99 77.632C162.363 77.632 162.667 77.7547 162.902 78C163.137 78.2347 163.254 78.5227 163.254 78.864C163.254 79.2053 163.137 79.4987 162.902 79.744C162.667 79.9893 162.363 80.112 161.99 80.112Z" fill="#52ADCA"/>
<path d="M96.1902 48.5421L106.638 37.9302H104.432C104.163 37.9302 103.898 37.897 103.642 37.8334L95.1553 46.4539L86.6726 37.8323C86.4162 37.8966 86.1495 37.9302 85.8775 37.9302H83.6789L94.1199 48.5421C94.6917 49.123 95.6186 49.123 96.1902 48.5421ZM109.865 20.9444C112.635 23.7602 113.351 27.8601 112.013 31.3315C111.868 31.3118 111.719 31.3016 111.569 31.3016H109.617C111.091 28.4787 110.658 24.8909 108.304 22.499C105.426 19.5735 100.801 19.572 97.9546 22.4641L95.8663 24.5906C95.4368 25.028 94.735 25.0284 94.3051 24.5914L92.1967 22.4484C89.3246 19.5294 84.7033 19.5272 81.8632 22.4137C79.5079 24.8075 79.0993 28.4534 80.6521 31.3016H78.6312C78.498 31.3016 78.3665 31.3096 78.2374 31.3251C76.8381 27.8312 77.5237 23.6837 80.3028 20.8592C83.9376 17.1649 89.7991 17.1104 93.5362 20.6763C93.6107 20.7474 93.6843 20.82 93.7571 20.8939L95.0846 22.2431L96.3942 20.9096C96.4726 20.8299 96.5519 20.752 96.6322 20.6757C100.361 17.1374 106.213 17.2334 109.865 20.9444ZM90.6239 25.3529C90.4539 24.9425 90.0561 24.6746 89.6143 24.673C89.1725 24.6714 88.7728 24.9365 88.6 25.3457L85.1512 33.5111H78.6312C78.0249 33.5111 77.5333 34.0058 77.5333 34.6159C77.5333 35.2259 78.0249 35.7207 78.6312 35.7207H85.8775C86.3179 35.7207 86.7157 35.456 86.8879 35.0481L89.6004 28.626L94.0865 39.4598C94.2445 39.8414 94.6008 40.1022 95.0102 40.136C95.4195 40.1698 95.8134 39.9709 96.031 39.6205L100.737 32.044L103.606 35.3435C103.815 35.5832 104.116 35.7207 104.432 35.7207H111.569C112.175 35.7207 112.667 35.2259 112.667 34.6159C112.667 34.0058 112.175 33.5111 111.569 33.5111H104.931L101.416 29.4694C101.187 29.2062 100.848 29.0676 100.502 29.0956C100.155 29.1236 99.8428 29.3149 99.6585 29.6113L95.2959 36.6354L90.6239 25.3529Z" fill="#FF4242"/>
<path d="M1.5 56.5H81H159.631" stroke="#52ADCA"/>
</svg>
